<svg width="267" height="305" viewBox="0 0 267 305" fill="none" xmlns="http://www.w3.org/2000/svg">
<ellipse cx="17.9883" cy="17.9883" rx="17.9883" ry="17.9883" transform="matrix(-1 0 0 1 201.107 208.12)" fill="black"/>
<ellipse cx="17.9883" cy="17.9883" rx="17.9883" ry="17.9883" transform="matrix(-1 0 0 1 94.9766 208.12)" fill="black"/>
<rect width="70.8737" height="7.91484" transform="matrix(-1 0 0 1 168.728 218.193)" fill="#34BB78"/>
<rect width="27.3422" height="7.91483" transform="matrix(-0.990115 0.140255 0.140255 0.990115 191.003 214.595)" fill="#34BB78"/>
<rect width="29.5245" height="7.91483" transform="matrix(-0.770932 -0.636918 -0.636918 0.770932 102.891 219.947)" fill="#34BB78"/>
<rect width="91.7401" height="7.91483" transform="matrix(-0.114698 0.9934 0.9934 0.114698 83.5162 134.008)" fill="#34BB78"/>
<circle cx="5.75624" cy="5.75624" r="5.75624" transform="matrix(-1 0 0 1 93.1778 126.813)" fill="black"/>
<ellipse cx="17.9883" cy="17.9883" rx="17.9883" ry="17.9883" transform="matrix(-0.965926 0.258819 0.258819 0.965926 233.645 84.8464)" fill="black"/>
<rect width="54.8138" height="7.91484" transform="matrix(-0.5 0.866025 0.866025 0.5 244.979 54.5744)" fill="#34BB78"/>
<rect width="91.7401" height="7.91483" transform="matrix(0.146321 0.989237 0.989237 -0.146321 203.394 16.2261)" fill="#34BB78"/>
<circle cx="5.75624" cy="5.75624" r="5.75624" transform="matrix(-0.965926 0.258819 0.258819 0.965926 210.864 6.77538)" fill="black"/>
<circle cx="26" cy="26" r="26" transform="matrix(-1 0 0 1 164 252.813)" fill="black"/>
<circle cx="26" cy="26" r="26" transform="matrix(-1 0 0 1 52 252.813)" fill="black"/>
<rect width="70.8737" height="7.91484" transform="matrix(-1 0 0 1 120.874 258.813)" fill="#34BB78"/>
<rect width="27.3422" height="7.91483" transform="matrix(-0.866025 -0.5 -0.5 0.866025 144.636 272.484)" fill="#34BB78"/>
<rect width="30.277" height="7.91483" transform="matrix(-0.841617 0.540074 0.540074 0.841617 49.9416 258.813)" fill="#34BB78"/>
<rect width="90.8381" height="7.91483" transform="matrix(-0.114698 0.9934 0.9934 0.114698 31.5162 191.008)" fill="#34BB78"/>
<circle cx="5.75624" cy="5.75624" r="5.75624" transform="matrix(-1 0 0 1 41.1778 183.813)" fill="black"/>
<ellipse cx="17.9883" cy="17.9883" rx="17.9883" ry="17.9883" transform="matrix(-1 0 0 1 253.107 158.12)" fill="black"/>
<ellipse cx="17.9883" cy="17.9883" rx="17.9883" ry="17.9883" transform="matrix(-1 0 0 1 146.977 158.12)" fill="black"/>
<rect width="70.8737" height="7.91484" transform="matrix(-1 0 0 1 220.728 168.193)" fill="#34BB78"/>
<rect width="46.8477" height="7.91484" transform="matrix(0.104191 -0.994557 -0.994557 -0.104191 195.872 174.23)" fill="#34BB78"/>
<rect width="24" height="8" transform="matrix(-1 -8.74228e-08 -8.74228e-08 1 209 122.813)" fill="black"/>
<rect width="24" height="8" transform="matrix(-1 -8.74228e-08 -8.74228e-08 1 259 52.8125)" fill="black"/>
<rect width="12.4358" height="8" transform="matrix(-0.979604 -0.200938 -0.200938 0.979604 224.79 79.3113)" fill="black"/>
<rect width="27.3422" height="7.91483" transform="matrix(-0.990115 0.140255 0.140255 0.990115 243.003 164.595)" fill="#34BB78"/>
<rect width="29.5245" height="7.91483" transform="matrix(-0.770932 -0.636918 -0.636918 0.770932 154.891 169.947)" fill="#34BB78"/>
<rect width="91.7401" height="7.91483" transform="matrix(-0.114698 0.9934 0.9934 0.114698 135.516 84.0079)" fill="#34BB78"/>
<circle cx="5.75624" cy="5.75624" r="5.75624" transform="matrix(-1 0 0 1 145.178 76.8126)" fill="black"/>
</svg>
