<svg width="161" height="59" viewBox="0 0 161 59" fill="none" xmlns="http://www.w3.org/2000/svg">
<ellipse cx="3.41772" cy="3.41772" rx="3.41772" ry="3.41772" transform="matrix(-1 0 0 1 27 22.566)" fill="black"/>
<ellipse cx="3.41772" cy="3.41772" rx="3.41772" ry="3.41772" transform="matrix(-1 0 0 1 6.83545 22.566)" fill="black"/>
<rect width="13.4658" height="1.5038" transform="matrix(-1 0 0 1 20.8481 24.4799)" fill="#34BB78"/>
<rect width="5.19494" height="1.5038" transform="matrix(-0.990115 0.140255 0.140255 0.990115 25.0802 23.7964)" fill="#34BB78"/>
<rect width="5.60957" height="1.5038" transform="matrix(-0.770932 -0.636918 -0.636918 0.770932 8.33923 24.8133)" fill="#34BB78"/>
<rect width="17.4304" height="1.5038" transform="matrix(-0.114698 0.9934 0.9934 0.114698 4.65802 8.48502)" fill="#34BB78"/>
<circle cx="1.09367" cy="1.09367" r="1.09367" transform="matrix(-1 0 0 1 6.49368 7.11792)" fill="black"/>
<circle cx="3.41772" cy="3.41772" r="3.41772" transform="matrix(4.37114e-08 -1 -1 -4.37114e-08 33.8354 29.4015)" fill="black"/>
<ellipse cx="3.41772" cy="3.41772" rx="3.41772" ry="3.41772" transform="matrix(4.37114e-08 -1 -1 -4.37114e-08 33.8354 9.23691)" fill="black"/>
<rect width="13.4658" height="1.5038" transform="matrix(4.37114e-08 -1 -1 -4.37114e-08 31.9215 23.2496)" fill="#34BB78"/>
<rect width="5.19494" height="1.5038" transform="matrix(-0.140255 -0.990115 -0.990115 0.140255 32.6051 27.4817)" fill="#34BB78"/>
<rect width="5.60957" height="1.5038" transform="matrix(0.636918 -0.770932 -0.770932 -0.636918 31.5882 10.7407)" fill="#34BB78"/>
<rect width="17.4304" height="1.5038" transform="matrix(-0.9934 -0.114699 -0.114698 0.9934 47.9164 7.05948)" fill="#34BB78"/>
<ellipse cx="1.09367" cy="1.09367" rx="1.09367" ry="1.09367" transform="matrix(4.37113e-08 -1 -1 -4.37114e-08 49.2835 8.89514)" fill="black"/>
<circle cx="3.41772" cy="3.41772" r="3.41772" transform="matrix(1 8.74228e-08 8.74228e-08 -1 27 36.2369)" fill="black"/>
<ellipse cx="3.41772" cy="3.41772" rx="3.41772" ry="3.41772" transform="matrix(1 8.74227e-08 8.74228e-08 -1 47.1646 36.2369)" fill="black"/>
<rect width="13.4658" height="1.5038" transform="matrix(1 8.74227e-08 8.74228e-08 -1 33.1519 34.323)" fill="#34BB78"/>
<rect width="5.19494" height="1.5038" transform="matrix(0.990115 -0.140255 -0.140255 -0.990115 28.9198 35.0065)" fill="#34BB78"/>
<rect width="5.60957" height="1.5038" transform="matrix(0.770931 0.636918 0.636918 -0.770932 45.6608 33.9897)" fill="#34BB78"/>
<rect width="17.4304" height="1.5038" transform="matrix(0.114699 -0.9934 -0.9934 -0.114698 49.342 50.3179)" fill="#34BB78"/>
<ellipse cx="1.09367" cy="1.09367" rx="1.09367" ry="1.09367" transform="matrix(1 8.74226e-08 8.74229e-08 -1 47.5063 51.685)" fill="black"/>
<circle cx="3.41772" cy="3.41772" r="3.41772" transform="matrix(4.37114e-08 1 1 -4.37114e-08 20.1646 29.4015)" fill="black"/>
<ellipse cx="3.41772" cy="3.41772" rx="3.41772" ry="3.41772" transform="matrix(4.37114e-08 1 1 -4.37114e-08 20.1646 49.566)" fill="black"/>
<rect width="13.4658" height="1.5038" transform="matrix(4.37114e-08 1 1 -4.37114e-08 22.0785 35.5533)" fill="#34BB78"/>
<rect width="5.19494" height="1.5038" transform="matrix(0.140255 0.990115 0.990115 -0.140255 21.3949 31.3212)" fill="#34BB78"/>
<rect width="5.60957" height="1.5038" transform="matrix(-0.636918 0.770932 0.770932 0.636918 22.4118 48.0622)" fill="#34BB78"/>
<rect width="17.4304" height="1.5038" transform="matrix(0.9934 0.114698 0.114698 -0.9934 6.08356 51.7434)" fill="#34BB78"/>
<ellipse cx="1.09367" cy="1.09367" rx="1.09367" ry="1.09367" transform="matrix(4.37113e-08 1 1 -4.37114e-08 4.71646 49.9078)" fill="black"/>
<path d="M67.88 34.36C67.568 34.36 67.28 34.264 67.016 34.072C66.752 33.88 66.62 33.592 66.62 33.208V21.076C66.62 20.524 66.788 20.116 67.124 19.852C67.484 19.564 67.868 19.42 68.276 19.42C68.9 19.42 69.356 19.66 69.644 20.14L75.584 29.464C75.704 29.656 75.836 29.752 75.98 29.752C76.196 29.752 76.304 29.584 76.304 29.248L76.16 20.572C76.16 20.188 76.292 19.9 76.556 19.708C76.82 19.516 77.108 19.42 77.42 19.42C77.732 19.42 78.02 19.516 78.284 19.708C78.548 19.9 78.68 20.188 78.68 20.572V32.776C78.68 33.304 78.524 33.7 78.212 33.964C77.9 34.228 77.54 34.36 77.132 34.36C76.844 34.36 76.556 34.288 76.268 34.144C76.004 34.024 75.776 33.82 75.584 33.532L69.752 24.46C69.632 24.268 69.5 24.172 69.356 24.172C69.14 24.172 69.032 24.34 69.032 24.676L69.14 33.208C69.14 33.592 69.008 33.88 68.744 34.072C68.504 34.264 68.216 34.36 67.88 34.36ZM86.737 34.36C84.937 34.36 83.533 33.844 82.525 32.812C81.517 31.78 81.013 30.388 81.013 28.636C81.013 27.1 81.517 25.84 82.525 24.856C83.557 23.872 84.877 23.38 86.485 23.38C88.045 23.38 89.293 23.836 90.229 24.748C91.165 25.636 91.633 26.74 91.633 28.06C91.633 28.588 91.489 28.984 91.201 29.248C90.937 29.512 90.589 29.644 90.157 29.644H83.893C83.653 29.644 83.569 29.776 83.641 30.04C83.833 30.712 84.217 31.24 84.793 31.624C85.393 31.984 86.065 32.164 86.809 32.164C87.361 32.164 87.889 32.092 88.393 31.948C88.921 31.804 89.377 31.588 89.761 31.3C89.881 31.204 90.037 31.156 90.229 31.156C90.493 31.156 90.733 31.276 90.949 31.516C91.165 31.732 91.273 31.996 91.273 32.308C91.273 32.452 91.249 32.596 91.201 32.74C91.153 32.884 91.045 33.028 90.877 33.172C90.253 33.628 89.581 33.94 88.861 34.108C88.165 34.276 87.457 34.36 86.737 34.36ZM88.825 27.772C88.969 27.772 89.041 27.7 89.041 27.556C89.041 27.004 88.789 26.524 88.285 26.116C87.805 25.708 87.205 25.504 86.485 25.504C85.861 25.504 85.261 25.672 84.685 26.008C84.133 26.344 83.797 26.788 83.677 27.34C83.677 27.34 83.677 27.352 83.677 27.376C83.653 27.472 83.641 27.556 83.641 27.628C83.665 27.7 83.773 27.736 83.965 27.736L88.825 27.772ZM95.0516 34.36C94.7396 34.36 94.4516 34.264 94.1876 34.072C93.9476 33.88 93.8276 33.604 93.8276 33.244V24.604C93.8276 24.196 93.9476 23.896 94.1876 23.704C94.4516 23.488 94.7396 23.38 95.0516 23.38C95.3636 23.38 95.6396 23.488 95.8796 23.704C96.1436 23.896 96.2756 24.196 96.2756 24.604V33.244C96.2756 33.604 96.1436 33.88 95.8796 34.072C95.6396 34.264 95.3636 34.36 95.0516 34.36ZM95.0876 21.4C94.6316 21.4 94.2356 21.256 93.8996 20.968C93.5876 20.656 93.4316 20.284 93.4316 19.852C93.4316 19.444 93.5876 19.096 93.8996 18.808C94.2356 18.496 94.6316 18.34 95.0876 18.34C95.5196 18.34 95.8916 18.496 96.2036 18.808C96.5156 19.096 96.6716 19.444 96.6716 19.852C96.6716 20.284 96.5156 20.656 96.2036 20.968C95.8916 21.256 95.5196 21.4 95.0876 21.4ZM108.242 34.36C107.93 34.36 107.642 34.264 107.378 34.072C107.138 33.88 107.018 33.604 107.018 33.244V28.708C107.018 27.652 106.778 26.872 106.298 26.368C105.842 25.864 105.23 25.612 104.462 25.612C103.478 25.612 102.758 25.936 102.302 26.584C101.87 27.208 101.654 27.904 101.654 28.672V33.244C101.654 33.604 101.522 33.88 101.258 34.072C101.018 34.264 100.742 34.36 100.43 34.36C100.118 34.36 99.8296 34.264 99.5656 34.072C99.3256 33.88 99.2056 33.604 99.2056 33.244V24.784C99.2056 24.376 99.3256 24.076 99.5656 23.884C99.8296 23.668 100.118 23.56 100.43 23.56C100.742 23.56 101.018 23.668 101.258 23.884C101.522 24.076 101.654 24.376 101.654 24.784C102.062 24.376 102.59 24.04 103.238 23.776C103.886 23.512 104.498 23.38 105.074 23.38C106.418 23.38 107.486 23.812 108.278 24.676C109.07 25.54 109.466 26.812 109.466 28.492V33.244C109.466 33.604 109.334 33.88 109.07 34.072C108.806 34.264 108.53 34.36 108.242 34.36ZM114.338 34C113.834 34 113.378 33.832 112.97 33.496C112.562 33.136 112.358 32.644 112.358 32.02V21.472C112.358 20.92 112.538 20.476 112.898 20.14C113.282 19.78 113.726 19.6 114.23 19.6H117.614C118.742 19.6 119.738 19.912 120.602 20.536C121.466 21.136 121.898 22 121.898 23.128C121.898 23.728 121.766 24.292 121.502 24.82C121.262 25.324 120.938 25.708 120.53 25.972C121.226 26.212 121.778 26.656 122.186 27.304C122.594 27.928 122.798 28.672 122.798 29.536C122.798 30.976 122.366 32.08 121.502 32.848C120.638 33.616 119.558 34 118.262 34H114.338ZM115.742 31.804H118.262C119.03 31.804 119.582 31.576 119.918 31.12C120.278 30.64 120.458 30.124 120.458 29.572C120.458 29.068 120.29 28.588 119.954 28.132C119.618 27.676 119.102 27.448 118.406 27.448H115.598C115.07 27.448 114.806 27.724 114.806 28.276V30.868C114.806 31.492 115.118 31.804 115.742 31.804ZM115.598 25.432H117.686C118.286 25.432 118.742 25.228 119.054 24.82C119.366 24.412 119.522 23.98 119.522 23.524C119.522 23.092 119.366 22.696 119.054 22.336C118.766 21.952 118.31 21.76 117.686 21.76H115.778C115.13 21.76 114.806 22.072 114.806 22.696V24.604C114.806 25.156 115.07 25.432 115.598 25.432ZM130.011 34.36C128.955 34.36 127.995 34.12 127.131 33.64C126.291 33.16 125.631 32.5 125.151 31.66C124.671 30.796 124.431 29.836 124.431 28.78C124.431 27.748 124.671 26.824 125.151 26.008C125.631 25.192 126.291 24.556 127.131 24.1C127.995 23.62 128.955 23.38 130.011 23.38C131.067 23.38 132.015 23.62 132.855 24.1C133.695 24.556 134.355 25.192 134.835 26.008C135.339 26.824 135.591 27.748 135.591 28.78C135.591 29.836 135.339 30.796 134.835 31.66C134.355 32.5 133.695 33.16 132.855 33.64C132.015 34.12 131.067 34.36 130.011 34.36ZM130.011 32.128C130.947 32.128 131.703 31.828 132.279 31.228C132.855 30.604 133.143 29.788 133.143 28.78C133.143 27.82 132.855 27.052 132.279 26.476C131.703 25.9 130.947 25.612 130.011 25.612C129.051 25.612 128.283 25.9 127.707 26.476C127.155 27.052 126.879 27.82 126.879 28.78C126.879 29.788 127.155 30.604 127.707 31.228C128.283 31.828 129.051 32.128 130.011 32.128ZM138.961 34.36C138.649 34.36 138.361 34.264 138.097 34.072C137.857 33.88 137.737 33.604 137.737 33.244V19.564C137.737 19.156 137.857 18.856 138.097 18.664C138.361 18.448 138.649 18.34 138.961 18.34C139.273 18.34 139.549 18.448 139.789 18.664C140.053 18.856 140.185 19.156 140.185 19.564V33.244C140.185 33.604 140.053 33.88 139.789 34.072C139.549 34.264 139.273 34.36 138.961 34.36ZM147.219 34.36C146.283 34.36 145.515 34.072 144.915 33.496C144.315 32.92 144.015 32.056 144.015 30.904V26.332C144.015 26.092 143.895 25.972 143.655 25.972H143.007C142.695 25.972 142.431 25.876 142.215 25.684C141.999 25.468 141.891 25.204 141.891 24.892C141.891 24.556 141.999 24.28 142.215 24.064C142.431 23.848 142.695 23.74 143.007 23.74H143.655C143.895 23.74 144.015 23.62 144.015 23.38V20.356C144.015 20.02 144.123 19.756 144.339 19.564C144.579 19.348 144.867 19.24 145.203 19.24C145.563 19.24 145.851 19.348 146.067 19.564C146.307 19.756 146.427 20.02 146.427 20.356V23.38C146.427 23.62 146.547 23.74 146.787 23.74H148.731C149.019 23.74 149.271 23.848 149.487 24.064C149.703 24.28 149.811 24.556 149.811 24.892C149.811 25.204 149.703 25.468 149.487 25.684C149.295 25.876 149.031 25.972 148.695 25.972H146.787C146.547 25.972 146.427 26.092 146.427 26.332V30.58C146.427 31.588 146.835 32.092 147.651 32.092C147.891 32.092 148.143 32.056 148.407 31.984C148.671 31.912 148.851 31.876 148.947 31.876C149.283 31.876 149.535 31.984 149.703 32.2C149.895 32.416 149.991 32.668 149.991 32.956C149.991 33.172 149.931 33.388 149.811 33.604C149.691 33.796 149.499 33.94 149.235 34.036C148.971 34.132 148.635 34.204 148.227 34.252C147.843 34.324 147.507 34.36 147.219 34.36Z" fill="black"/>
</svg>
