<svg width="311" height="113" viewBox="0 0 311 113" fill="none" xmlns="http://www.w3.org/2000/svg">
<circle cx="6.59035" cy="6.59035" r="6.59035" transform="matrix(-1 0 0 1 52.0638 43.5138)" fill="black"/>
<circle cx="6.59035" cy="6.59035" r="6.59035" transform="matrix(-1 0 0 1 13.1807 43.5138)" fill="black"/>
<rect width="25.966" height="2.89976" transform="matrix(-1 0 0 1 40.2012 47.2044)" fill="#34BB78"/>
<rect width="10.0173" height="2.89976" transform="matrix(-0.990115 0.140255 0.140255 0.990115 48.3619 45.8864)" fill="#34BB78"/>
<rect width="10.8169" height="2.89976" transform="matrix(-0.770932 -0.636918 -0.636918 0.770932 16.0805 47.8472)" fill="#34BB78"/>
<rect width="33.6108" height="2.89976" transform="matrix(-0.114698 0.9934 0.9934 0.114698 8.98203 16.3616)" fill="#34BB78"/>
<ellipse cx="2.10891" cy="2.10891" rx="2.10891" ry="2.10891" transform="matrix(-1 0 0 1 12.5217 13.7254)" fill="black"/>
<ellipse cx="6.59035" cy="6.59036" rx="6.59035" ry="6.59036" transform="matrix(4.37114e-08 -1 -1 -4.37114e-08 65.2445 56.6945)" fill="black"/>
<ellipse cx="6.59035" cy="6.59035" rx="6.59035" ry="6.59035" transform="matrix(4.37114e-08 -1 -1 -4.37114e-08 65.2445 17.8115)" fill="black"/>
<rect width="25.966" height="2.89976" transform="matrix(4.37114e-08 -1 -1 -4.37114e-08 61.5539 44.8319)" fill="#34BB78"/>
<rect width="10.0173" height="2.89976" transform="matrix(-0.140255 -0.990115 -0.990115 0.140255 62.872 52.9927)" fill="#34BB78"/>
<rect width="10.8169" height="2.89976" transform="matrix(0.636918 -0.770932 -0.770932 -0.636918 60.9112 20.7112)" fill="#34BB78"/>
<rect width="33.6108" height="2.89976" transform="matrix(-0.9934 -0.114699 -0.114698 0.9934 92.3968 13.6128)" fill="#34BB78"/>
<ellipse cx="2.10891" cy="2.10891" rx="2.10891" ry="2.10891" transform="matrix(4.37114e-08 -1 -1 -4.37114e-08 95.0329 17.1524)" fill="black"/>
<circle cx="6.59036" cy="6.59036" r="6.59036" transform="matrix(1 8.74228e-08 8.74228e-08 -1 52.0638 69.8752)" fill="black"/>
<circle cx="6.59035" cy="6.59035" r="6.59035" transform="matrix(1 8.74228e-08 8.74228e-08 -1 90.9469 69.8752)" fill="black"/>
<rect width="25.966" height="2.89976" transform="matrix(1 8.74229e-08 8.74227e-08 -1 63.9264 66.1846)" fill="#34BB78"/>
<rect width="10.0173" height="2.89976" transform="matrix(0.990115 -0.140255 -0.140255 -0.990115 55.7657 67.5027)" fill="#34BB78"/>
<rect width="10.8169" height="2.89976" transform="matrix(0.770932 0.636918 0.636918 -0.770932 88.0471 65.5419)" fill="#34BB78"/>
<rect width="33.6108" height="2.89976" transform="matrix(0.114699 -0.9934 -0.9934 -0.114698 95.1456 97.0275)" fill="#34BB78"/>
<circle cx="2.10891" cy="2.10891" r="2.10891" transform="matrix(1 8.74228e-08 8.74228e-08 -1 91.6059 99.6636)" fill="black"/>
<circle cx="6.59035" cy="6.59035" r="6.59035" transform="matrix(4.37114e-08 1 1 -4.37114e-08 38.8831 56.6946)" fill="black"/>
<circle cx="6.59035" cy="6.59035" r="6.59035" transform="matrix(4.37114e-08 1 1 -4.37114e-08 38.8831 95.5776)" fill="black"/>
<rect width="25.966" height="2.89976" transform="matrix(4.37114e-08 1 1 -4.37114e-08 42.5737 68.5572)" fill="#34BB78"/>
<rect width="10.0173" height="2.89976" transform="matrix(0.140255 0.990115 0.990115 -0.140255 41.2556 60.3964)" fill="#34BB78"/>
<rect width="10.8169" height="2.89976" transform="matrix(-0.636918 0.770932 0.770932 0.636918 43.2164 92.6779)" fill="#34BB78"/>
<rect width="33.6108" height="2.89976" transform="matrix(0.9934 0.114698 0.114698 -0.9934 11.7308 99.7763)" fill="#34BB78"/>
<ellipse cx="2.10891" cy="2.10891" rx="2.10891" ry="2.10891" transform="matrix(4.37114e-08 1 1 -4.37114e-08 9.0947 96.2367)" fill="black"/>
<path d="M130.459 64.64C129.904 64.64 129.392 64.4693 128.923 64.128C128.453 63.7867 128.219 63.2747 128.219 62.592V41.024C128.219 40.0427 128.517 39.3173 129.115 38.848C129.755 38.336 130.437 38.08 131.163 38.08C132.272 38.08 133.083 38.5067 133.595 39.36L144.155 55.936C144.368 56.2773 144.603 56.448 144.859 56.448C145.243 56.448 145.435 56.1493 145.435 55.552L145.179 40.128C145.179 39.4453 145.413 38.9333 145.883 38.592C146.352 38.2507 146.864 38.08 147.419 38.08C147.973 38.08 148.485 38.2507 148.955 38.592C149.424 38.9333 149.659 39.4453 149.659 40.128V61.824C149.659 62.7627 149.381 63.4667 148.827 63.936C148.272 64.4053 147.632 64.64 146.907 64.64C146.395 64.64 145.883 64.512 145.371 64.256C144.901 64.0427 144.496 63.68 144.155 63.168L133.787 47.04C133.573 46.6987 133.339 46.528 133.083 46.528C132.699 46.528 132.507 46.8267 132.507 47.424L132.699 62.592C132.699 63.2747 132.464 63.7867 131.995 64.128C131.568 64.4693 131.056 64.64 130.459 64.64ZM163.982 64.64C160.782 64.64 158.286 63.7227 156.494 61.888C154.702 60.0533 153.806 57.5787 153.806 54.464C153.806 51.7333 154.702 49.4933 156.494 47.744C158.329 45.9947 160.676 45.12 163.534 45.12C166.308 45.12 168.526 45.9307 170.19 47.552C171.854 49.1307 172.686 51.0933 172.686 53.44C172.686 54.3787 172.43 55.0827 171.918 55.552C171.449 56.0213 170.83 56.256 170.062 56.256H158.926C158.5 56.256 158.35 56.4907 158.478 56.96C158.82 58.1547 159.502 59.0933 160.526 59.776C161.593 60.416 162.788 60.736 164.11 60.736C165.092 60.736 166.03 60.608 166.926 60.352C167.865 60.096 168.676 59.712 169.358 59.2C169.572 59.0293 169.849 58.944 170.19 58.944C170.66 58.944 171.086 59.1573 171.47 59.584C171.854 59.968 172.046 60.4373 172.046 60.992C172.046 61.248 172.004 61.504 171.918 61.76C171.833 62.016 171.641 62.272 171.342 62.528C170.233 63.3387 169.038 63.8933 167.758 64.192C166.521 64.4907 165.262 64.64 163.982 64.64ZM167.694 52.928C167.95 52.928 168.078 52.8 168.078 52.544C168.078 51.5627 167.63 50.7093 166.734 49.984C165.881 49.2587 164.814 48.896 163.534 48.896C162.425 48.896 161.358 49.1947 160.334 49.792C159.353 50.3893 158.756 51.1787 158.542 52.16C158.542 52.16 158.542 52.1813 158.542 52.224C158.5 52.3947 158.478 52.544 158.478 52.672C158.521 52.8 158.713 52.864 159.054 52.864L167.694 52.928ZM178.764 64.64C178.209 64.64 177.697 64.4693 177.228 64.128C176.801 63.7867 176.588 63.296 176.588 62.656V47.296C176.588 46.5707 176.801 46.0373 177.228 45.696C177.697 45.312 178.209 45.12 178.764 45.12C179.318 45.12 179.809 45.312 180.236 45.696C180.705 46.0373 180.94 46.5707 180.94 47.296V62.656C180.94 63.296 180.705 63.7867 180.236 64.128C179.809 64.4693 179.318 64.64 178.764 64.64ZM178.828 41.6C178.017 41.6 177.313 41.344 176.716 40.832C176.161 40.2773 175.884 39.616 175.884 38.848C175.884 38.1227 176.161 37.504 176.716 36.992C177.313 36.4373 178.017 36.16 178.828 36.16C179.596 36.16 180.257 36.4373 180.812 36.992C181.366 37.504 181.644 38.1227 181.644 38.848C181.644 39.616 181.366 40.2773 180.812 40.832C180.257 41.344 179.596 41.6 178.828 41.6ZM202.213 64.64C201.658 64.64 201.146 64.4693 200.677 64.128C200.25 63.7867 200.037 63.296 200.037 62.656V54.592C200.037 52.7147 199.61 51.328 198.757 50.432C197.946 49.536 196.858 49.088 195.493 49.088C193.743 49.088 192.463 49.664 191.653 50.816C190.885 51.9253 190.501 53.1627 190.501 54.528V62.656C190.501 63.296 190.266 63.7867 189.797 64.128C189.37 64.4693 188.879 64.64 188.325 64.64C187.77 64.64 187.258 64.4693 186.789 64.128C186.362 63.7867 186.149 63.296 186.149 62.656V47.616C186.149 46.8907 186.362 46.3573 186.789 46.016C187.258 45.632 187.77 45.44 188.325 45.44C188.879 45.44 189.37 45.632 189.797 46.016C190.266 46.3573 190.501 46.8907 190.501 47.616C191.226 46.8907 192.165 46.2933 193.317 45.824C194.469 45.3547 195.557 45.12 196.581 45.12C198.97 45.12 200.869 45.888 202.277 47.424C203.685 48.96 204.389 51.2213 204.389 54.208V62.656C204.389 63.296 204.154 63.7867 203.685 64.128C203.215 64.4693 202.725 64.64 202.213 64.64ZM213.051 64C212.155 64 211.345 63.7013 210.619 63.104C209.894 62.464 209.531 61.5893 209.531 60.48V41.728C209.531 40.7467 209.851 39.9573 210.491 39.36C211.174 38.72 211.963 38.4 212.859 38.4H218.875C220.881 38.4 222.651 38.9547 224.187 40.064C225.723 41.1307 226.491 42.6667 226.491 44.672C226.491 45.7387 226.257 46.7413 225.787 47.68C225.361 48.576 224.785 49.2587 224.059 49.728C225.297 50.1547 226.278 50.944 227.003 52.096C227.729 53.2053 228.091 54.528 228.091 56.064C228.091 58.624 227.323 60.5867 225.787 61.952C224.251 63.3173 222.331 64 220.027 64H213.051ZM215.547 60.096H220.027C221.393 60.096 222.374 59.6907 222.971 58.88C223.611 58.0267 223.931 57.1093 223.931 56.128C223.931 55.232 223.633 54.3787 223.035 53.568C222.438 52.7573 221.521 52.352 220.283 52.352H215.291C214.353 52.352 213.883 52.8427 213.883 53.824V58.432C213.883 59.5413 214.438 60.096 215.547 60.096ZM215.291 48.768H219.003C220.07 48.768 220.881 48.4053 221.435 47.68C221.99 46.9547 222.267 46.1867 222.267 45.376C222.267 44.608 221.99 43.904 221.435 43.264C220.923 42.5813 220.113 42.24 219.003 42.24H215.611C214.459 42.24 213.883 42.7947 213.883 43.904V47.296C213.883 48.2773 214.353 48.768 215.291 48.768ZM240.914 64.64C239.036 64.64 237.33 64.2133 235.794 63.36C234.3 62.5067 233.127 61.3333 232.274 59.84C231.42 58.304 230.994 56.5973 230.994 54.72C230.994 52.8853 231.42 51.2427 232.274 49.792C233.127 48.3413 234.3 47.2107 235.794 46.4C237.33 45.5467 239.036 45.12 240.914 45.12C242.791 45.12 244.476 45.5467 245.97 46.4C247.463 47.2107 248.636 48.3413 249.49 49.792C250.386 51.2427 250.834 52.8853 250.834 54.72C250.834 56.5973 250.386 58.304 249.49 59.84C248.636 61.3333 247.463 62.5067 245.97 63.36C244.476 64.2133 242.791 64.64 240.914 64.64ZM240.914 60.672C242.578 60.672 243.922 60.1387 244.946 59.072C245.97 57.9627 246.482 56.512 246.482 54.72C246.482 53.0133 245.97 51.648 244.946 50.624C243.922 49.6 242.578 49.088 240.914 49.088C239.207 49.088 237.842 49.6 236.818 50.624C235.836 51.648 235.346 53.0133 235.346 54.72C235.346 56.512 235.836 57.9627 236.818 59.072C237.842 60.1387 239.207 60.672 240.914 60.672ZM256.825 64.64C256.27 64.64 255.758 64.4693 255.289 64.128C254.862 63.7867 254.649 63.296 254.649 62.656V38.336C254.649 37.6107 254.862 37.0773 255.289 36.736C255.758 36.352 256.27 36.16 256.825 36.16C257.379 36.16 257.87 36.352 258.297 36.736C258.766 37.0773 259.001 37.6107 259.001 38.336V62.656C259.001 63.296 258.766 63.7867 258.297 64.128C257.87 64.4693 257.379 64.64 256.825 64.64ZM271.506 64.64C269.842 64.64 268.476 64.128 267.41 63.104C266.343 62.08 265.81 60.544 265.81 58.496V50.368C265.81 49.9413 265.596 49.728 265.17 49.728H264.018C263.463 49.728 262.994 49.5573 262.61 49.216C262.226 48.832 262.034 48.3627 262.034 47.808C262.034 47.2107 262.226 46.72 262.61 46.336C262.994 45.952 263.463 45.76 264.018 45.76H265.17C265.596 45.76 265.81 45.5467 265.81 45.12V39.744C265.81 39.1467 266.002 38.6773 266.386 38.336C266.812 37.952 267.324 37.76 267.922 37.76C268.562 37.76 269.074 37.952 269.458 38.336C269.884 38.6773 270.098 39.1467 270.098 39.744V45.12C270.098 45.5467 270.311 45.76 270.738 45.76H274.194C274.706 45.76 275.154 45.952 275.538 46.336C275.922 46.72 276.114 47.2107 276.114 47.808C276.114 48.3627 275.922 48.832 275.538 49.216C275.196 49.5573 274.727 49.728 274.13 49.728H270.738C270.311 49.728 270.098 49.9413 270.098 50.368V57.92C270.098 59.712 270.823 60.608 272.274 60.608C272.7 60.608 273.148 60.544 273.618 60.416C274.087 60.288 274.407 60.224 274.578 60.224C275.175 60.224 275.623 60.416 275.922 60.8C276.263 61.184 276.434 61.632 276.434 62.144C276.434 62.528 276.327 62.912 276.114 63.296C275.9 63.6373 275.559 63.8933 275.09 64.064C274.62 64.2347 274.023 64.3627 273.298 64.448C272.615 64.576 272.018 64.64 271.506 64.64Z" fill="black"/>
</svg>
