<svg width="144" height="119" viewBox="0 0 144 119" fill="none" xmlns="http://www.w3.org/2000/svg">
<ellipse cx="17.9883" cy="17.9883" rx="17.9883" ry="17.9883" transform="matrix(-1 0 0 1 143.054 82.1653)" fill="black"/>
<ellipse cx="17.9883" cy="17.9883" rx="17.9883" ry="17.9883" transform="matrix(-1 0 0 1 36.9229 82.1653)" fill="black"/>
<rect width="70.8737" height="7.91484" transform="matrix(-1 0 0 1 110.675 92.2386)" fill="#34BB78"/>
<rect width="27.3422" height="7.91483" transform="matrix(-0.990115 0.140255 0.140255 0.990115 132.949 88.6409)" fill="#34BB78"/>
<rect width="29.5245" height="7.91483" transform="matrix(-0.770932 -0.636918 -0.636918 0.770932 44.8376 93.9929)" fill="#34BB78"/>
<rect width="91.7401" height="7.91483" transform="matrix(-0.114698 0.9934 0.9934 0.114698 25.4625 8.05356)" fill="#34BB78"/>
<circle cx="5.75624" cy="5.75624" r="5.75624" transform="matrix(-1 0 0 1 35.124 0.858215)" fill="black"/>
</svg>
