<svg width="164" height="121" viewBox="0 0 164 121" fill="none" xmlns="http://www.w3.org/2000/svg">
<circle cx="26" cy="26" r="26" transform="matrix(-1 0 0 1 164 69)" fill="black"/>
<circle cx="26" cy="26" r="26" transform="matrix(-1 0 0 1 52 69)" fill="black"/>
<rect width="70.8737" height="7.91484" transform="matrix(-1 0 0 1 120.874 75)" fill="#34BB78"/>
<rect width="27.3422" height="7.91483" transform="matrix(-0.866025 -0.5 -0.5 0.866025 144.636 88.6711)" fill="#34BB78"/>
<rect width="30.277" height="7.91483" transform="matrix(-0.841617 0.540074 0.540074 0.841617 49.9416 75)" fill="#34BB78"/>
<rect width="90.8381" height="7.91483" transform="matrix(-0.114698 0.9934 0.9934 0.114698 31.5162 7.19534)" fill="#34BB78"/>
<circle cx="5.75624" cy="5.75624" r="5.75624" transform="matrix(-1 0 0 1 41.1777 0)" fill="black"/>
</svg>
